<?xml version="1.0" encoding="UTF-8" standalone="no"?>
<!DOCTYPE svg PUBLIC "-//W3C//DTD SVG 1.1//EN"
 "http://www.w3.org/Graphics/SVG/1.1/DTD/svg11.dtd">
<!-- Generated by graphviz version 2.40.1 (20161225.0304)
 -->
<!-- Title: template Pages: 1 -->
<svg width="370pt" height="254pt"
 viewBox="0.00 0.00 370.00 254.00" xmlns="http://www.w3.org/2000/svg" xmlns:xlink="http://www.w3.org/1999/xlink">
<g id="graph0" class="graph" transform="scale(1 1) rotate(0) translate(4 250)">
<title>template</title>
<polygon fill="#ffffff" stroke="transparent" points="-4,4 -4,-250 366,-250 366,4 -4,4"/>
<!-- template -->
<g id="node1" class="node">
<title>template</title>
<polygon fill="#ffff80" stroke="#000000" points="224,-246 0,-246 0,-208 224,-208 224,-246"/>
<text text-anchor="middle" x="112" y="-230.8" font-family="Times,serif" font-size="14.00" fill="#000000">myprog.xml.template</text>
<text text-anchor="middle" x="112" y="-215.8" font-family="Times,serif" font-size="14.00" fill="#000000">&lt;implementation version={version}&gt;</text>
</g>
<!-- single_feed -->
<g id="node2" class="node">
<title>single_feed</title>
<polygon fill="#ffff80" stroke="#000000" points="206,-157 18,-157 18,-119 206,-119 206,-157"/>
<text text-anchor="middle" x="112" y="-141.8" font-family="Times,serif" font-size="14.00" fill="#000000">myprog&#45;1.2.xml</text>
<text text-anchor="middle" x="112" y="-126.8" font-family="Times,serif" font-size="14.00" fill="#000000">&lt;implementation version=1.2&gt;</text>
</g>
<!-- template&#45;&gt;single_feed -->
<g id="edge1" class="edge">
<title>template&#45;&gt;single_feed</title>
<path fill="none" stroke="#000000" d="M112,-207.6883C112,-195.909 112,-180.6187 112,-167.3628"/>
<polygon fill="#000000" stroke="#000000" points="115.5001,-167.274 112,-157.274 108.5001,-167.274 115.5001,-167.274"/>
<text text-anchor="middle" x="237" y="-178.8" font-family="Times,serif" font-size="14.00" fill="#000000"> 0template myprog.xml.template version=1.2</text>
</g>
<!-- master_feed -->
<g id="node3" class="node">
<title>master_feed</title>
<polygon fill="#ffff80" stroke="#000000" points="206,-68 18,-68 18,0 206,0 206,-68"/>
<text text-anchor="middle" x="112" y="-52.8" font-family="Times,serif" font-size="14.00" fill="#000000">myprog.xml</text>
<text text-anchor="middle" x="112" y="-37.8" font-family="Times,serif" font-size="14.00" fill="#000000">&lt;implementation version=1.0&gt;</text>
<text text-anchor="middle" x="112" y="-22.8" font-family="Times,serif" font-size="14.00" fill="#000000">&lt;implementation version=1.1&gt;</text>
<text text-anchor="middle" x="112" y="-7.8" font-family="Times,serif" font-size="14.00" fill="#000000">&lt;implementation version=1.2&gt;</text>
</g>
<!-- single_feed&#45;&gt;master_feed -->
<g id="edge2" class="edge">
<title>single_feed&#45;&gt;master_feed</title>
<path fill="none" stroke="#000000" d="M112,-118.9248C112,-107.5055 112,-92.4875 112,-78.2602"/>
<polygon fill="#000000" stroke="#000000" points="115.5001,-78.103 112,-68.103 108.5001,-78.103 115.5001,-78.103"/>
<text text-anchor="middle" x="188" y="-89.8" font-family="Times,serif" font-size="14.00" fill="#000000"> 0repo add myprog&#45;1.2.xml</text>
</g>
</g>
</svg>
