<?xml version="1.0" encoding="UTF-8" standalone="no"?>
<!DOCTYPE svg PUBLIC "-//W3C//DTD SVG 1.1//EN"
 "http://www.w3.org/Graphics/SVG/1.1/DTD/svg11.dtd">
<!-- Generated by graphviz version 2.38.0 (20140413.2041)
 -->
<!-- Title: %3 Pages: 1 -->
<svg width="435pt" height="260pt"
 viewBox="0.00 0.00 435.48 260.00" xmlns="http://www.w3.org/2000/svg" xmlns:xlink="http://www.w3.org/1999/xlink">
<g id="graph0" class="graph" transform="scale(1 1) rotate(0) translate(4 256)">
<title>%3</title>
<polygon fill="white" stroke="none" points="-4,4 -4,-256 431.481,-256 431.481,4 -4,4"/>
<!-- commands -->
<g id="node1" class="node"><title>commands</title>
<ellipse fill="none" stroke="black" cx="93.5917" cy="-234" rx="93.6835" ry="18"/>
<text text-anchor="middle" x="93.5917" y="-230.3" font-family="Times New Roman,serif" font-size="14.00">ZeroInstall.Commands</text>
</g>
<!-- services -->
<g id="node3" class="node"><title>services</title>
<ellipse fill="none" stroke="black" cx="85.5917" cy="-162" rx="82.5854" ry="18"/>
<text text-anchor="middle" x="85.5917" y="-158.3" font-family="Times New Roman,serif" font-size="14.00">ZeroInstall.Services</text>
</g>
<!-- commands&#45;&gt;services -->
<g id="edge1" class="edge"><title>commands&#45;&gt;services</title>
<path fill="none" stroke="black" d="M91.6142,-215.697C90.7326,-207.983 89.6731,-198.712 88.6903,-190.112"/>
<polygon fill="black" stroke="black" points="92.1594,-189.642 87.5465,-180.104 85.2047,-190.437 92.1594,-189.642"/>
</g>
<!-- desktop_integration -->
<g id="node5" class="node"><title>desktop_integration</title>
<ellipse fill="none" stroke="black" cx="306.592" cy="-162" rx="120.779" ry="18"/>
<text text-anchor="middle" x="306.592" y="-158.3" font-family="Times New Roman,serif" font-size="14.00">ZeroInstall.DesktopIntegration</text>
</g>
<!-- commands&#45;&gt;desktop_integration -->
<g id="edge2" class="edge"><title>commands&#45;&gt;desktop_integration</title>
<path fill="none" stroke="black" d="M138.764,-218.155C171.023,-207.553 214.67,-193.209 249.366,-181.807"/>
<polygon fill="black" stroke="black" points="250.491,-185.121 258.898,-178.674 248.305,-178.471 250.491,-185.121"/>
</g>
<!-- publish -->
<g id="node2" class="node"><title>publish</title>
<ellipse fill="none" stroke="black" cx="298.592" cy="-234" rx="78.7863" ry="18"/>
<text text-anchor="middle" x="298.592" y="-230.3" font-family="Times New Roman,serif" font-size="14.00">ZeroInstall.Publish</text>
</g>
<!-- publish&#45;&gt;services -->
<g id="edge3" class="edge"><title>publish&#45;&gt;services</title>
<path fill="none" stroke="black" d="M255.488,-218.834C221.931,-207.806 175.173,-192.44 139.202,-180.618"/>
<polygon fill="black" stroke="black" points="139.955,-177.182 129.362,-177.385 137.77,-183.832 139.955,-177.182"/>
</g>
<!-- publish&#45;&gt;desktop_integration -->
<g id="edge4" class="edge"><title>publish&#45;&gt;desktop_integration</title>
<path fill="none" stroke="black" d="M300.569,-215.697C301.451,-207.983 302.51,-198.712 303.493,-190.112"/>
<polygon fill="black" stroke="black" points="306.979,-190.437 304.637,-180.104 300.024,-189.642 306.979,-190.437"/>
</g>
<!-- services_interfaces -->
<g id="node4" class="node"><title>services_interfaces</title>
<ellipse fill="none" stroke="black" cx="121.592" cy="-90" rx="120.479" ry="18"/>
<text text-anchor="middle" x="121.592" y="-86.3" font-family="Times New Roman,serif" font-size="14.00">ZeroInstall.Services.Interfaces</text>
</g>
<!-- services&#45;&gt;services_interfaces -->
<g id="edge5" class="edge"><title>services&#45;&gt;services_interfaces</title>
<path fill="none" stroke="black" d="M94.3063,-144.055C98.4454,-136.007 103.486,-126.205 108.104,-117.226"/>
<polygon fill="black" stroke="black" points="111.246,-118.769 112.707,-108.275 105.021,-115.567 111.246,-118.769"/>
</g>
<!-- store -->
<g id="node6" class="node"><title>store</title>
<ellipse fill="none" stroke="black" cx="204.592" cy="-18" rx="71.4873" ry="18"/>
<text text-anchor="middle" x="204.592" y="-14.3" font-family="Times New Roman,serif" font-size="14.00">ZeroInstall.Store</text>
</g>
<!-- services_interfaces&#45;&gt;store -->
<g id="edge6" class="edge"><title>services_interfaces&#45;&gt;store</title>
<path fill="none" stroke="black" d="M141.684,-72.055C152.364,-63.047 165.651,-51.8419 177.257,-42.0534"/>
<polygon fill="black" stroke="black" points="179.583,-44.67 184.971,-35.5475 175.07,-39.319 179.583,-44.67"/>
</g>
<!-- desktop_integration&#45;&gt;store -->
<g id="edge7" class="edge"><title>desktop_integration&#45;&gt;store</title>
<path fill="none" stroke="black" d="M296.809,-143.759C286.175,-125.446 268.32,-95.8993 250.592,-72 243.367,-62.2604 234.807,-52.0826 227.042,-43.2797"/>
<polygon fill="black" stroke="black" points="229.473,-40.7487 220.195,-35.6339 224.259,-45.4185 229.473,-40.7487"/>
</g>
</g>
</svg>
